<svg width="31" height="31" viewBox="0 0 31 31" fill="none" xmlns="http://www.w3.org/2000/svg">
<circle cx="15.5" cy="15.5" r="15.5" fill="#F36C33"/>
<path fill-rule="evenodd" clip-rule="evenodd" d="M20.5557 7.4349C19.2999 6.80887 17.8295 6.77943 16.5497 7.35471L8.84686 10.8172C8.33155 11.0488 8.00008 11.5612 8.00008 12.1262V13.0394C8.00008 13.5836 8.30789 14.081 8.79493 14.3238L15.0216 17.428C15.4248 17.629 15.8991 17.629 16.3023 17.428L22.5835 14.2966C23.6867 13.7466 24.9831 14.5489 24.9831 15.7815V16.9513C24.9831 17.5805 24.6272 18.1556 24.0641 18.4363L16.4023 22.256C15.9361 22.4884 15.3878 22.4884 14.9217 22.256L8.95276 19.2803C8.51479 19.062 8.00008 19.3805 8.00008 19.8699C8.00008 20.1197 8.14137 20.348 8.36492 20.4594L15.0293 23.7819C15.4298 23.9815 15.9005 23.983 16.3022 23.7857L21.5323 21.2179C21.9436 21.016 22.4407 21.1857 22.6426 21.597C22.8446 22.0083 22.6748 22.5055 22.2635 22.7074L16.396 25.5881C15.9316 25.8161 15.3875 25.8145 14.9245 25.5836L7.25978 21.7625C6.69669 21.4818 6.34082 20.9067 6.34082 20.2775V18.8054C6.34082 17.5727 7.63726 16.7704 8.74039 17.3204L15.0216 20.4518C15.4248 20.6529 15.8991 20.6529 16.3023 20.4518L23.0339 17.0959C23.2116 17.0073 23.3238 16.8259 23.3238 16.6274C23.3238 16.2385 22.9148 15.9854 22.5668 16.1589L16.4023 19.2322C15.9361 19.4646 15.3878 19.4646 14.9216 19.2322L7.25977 15.4125C6.69669 15.1317 6.34082 14.5567 6.34082 13.9275V11.1978C6.34082 10.5446 6.72404 9.95222 7.3198 9.68442L15.8694 5.84131C17.6031 5.06204 19.5949 5.10191 21.296 5.94995C24.3991 7.49698 24.3344 11.9467 21.1876 13.4029L16.3757 15.6295C15.9143 15.8431 15.3805 15.8332 14.9272 15.6029L10.377 13.2906C9.96848 13.0831 9.80562 12.5837 10.0132 12.1752C10.2208 11.7667 10.7202 11.6038 11.1286 11.8114L15.058 13.8082C15.4501 14.0074 15.9118 14.0159 16.3109 13.8312L20.4908 11.897C22.3748 11.0252 22.4135 8.36112 20.5557 7.4349Z" fill="white"/>
</svg>
